<?xml version="1.0" encoding="UTF-8" standalone="no"?>
<!-- Created with Inkscape (http://www.inkscape.org/) -->

<svg
   xmlns:dc="http://purl.org/dc/elements/1.1/"
   xmlns:cc="http://creativecommons.org/ns#"
   xmlns:rdf="http://www.w3.org/1999/02/22-rdf-syntax-ns#"
   xmlns:svg="http://www.w3.org/2000/svg"
   xmlns="http://www.w3.org/2000/svg"
   xmlns:xlink="http://www.w3.org/1999/xlink"
   xmlns:sodipodi="http://sodipodi.sourceforge.net/DTD/sodipodi-0.dtd"
   xmlns:inkscape="http://www.inkscape.org/namespaces/inkscape"
   width="115.15991mm"
   height="98.057648mm"
   viewBox="0 0 408.04693 347.44836"
   id="svg2"
   version="1.1"
   inkscape:version="0.91 r13725"
   sodipodi:docname="kishu_v1.svg">
  <defs
     id="defs4">
    <linearGradient
       inkscape:collect="always"
       id="linearGradient4316">
      <stop
         style="stop-color:#00b100;stop-opacity:1;"
         offset="0"
         id="stop4304" />
      <stop
         style="stop-color:#00b100;stop-opacity:0;"
         offset="1"
         id="stop4306" />
    </linearGradient>
    <inkscape:path-effect
       effect="skeletal"
       id="path-effect4138"
       is_visible="true"
       pattern="m 116.13505,21.080238 c 0,-2.76 2.24,-5 5,-5 2.76,0 5,2.24 5,5 0,2.76 -2.24,5 -5,5 -2.76,0 -5,-2.24 -5,-5 z"
       copytype="single_stretched"
       prop_scale="1"
       scale_y_rel="false"
       spacing="0"
       normal_offset="0"
       tang_offset="0"
       prop_units="false"
       vertical_pattern="false"
       fuse_tolerance="0" />
    <linearGradient
       inkscape:collect="always"
       xlink:href="#linearGradient4316"
       id="linearGradient4308"
       x1="157.01462"
       y1="478.23111"
       x2="555.69427"
       y2="478.23111"
       gradientUnits="userSpaceOnUse" />
  </defs>
  <sodipodi:namedview
     id="base"
     pagecolor="#ffffff"
     bordercolor="#666666"
     borderopacity="1.0"
     inkscape:pageopacity="0.0"
     inkscape:pageshadow="2"
     inkscape:zoom="1.6952159"
     inkscape:cx="204.02347"
     inkscape:cy="173.72418"
     inkscape:document-units="px"
     inkscape:current-layer="layer1"
     showgrid="true"
     inkscape:window-width="1440"
     inkscape:window-height="791"
     inkscape:window-x="0"
     inkscape:window-y="1"
     inkscape:window-maximized="1"
     showguides="false"
     fit-margin-top="0"
     fit-margin-left="0"
     fit-margin-right="0"
     fit-margin-bottom="0">
    <inkscape:grid
       type="xygrid"
       id="grid4165"
       originx="-155.40882"
       originy="-403.87284" />
  </sodipodi:namedview>
  <metadata
     id="metadata7">
    <rdf:RDF>
      <cc:Work
         rdf:about="">
        <dc:format>image/svg+xml</dc:format>
        <dc:type
           rdf:resource="http://purl.org/dc/dcmitype/StillImage" />
        <dc:title></dc:title>
      </cc:Work>
    </rdf:RDF>
  </metadata>
  <g
     inkscape:label="Layer 1"
     inkscape:groupmode="layer"
     id="layer1"
     transform="translate(-155.40882,-301.041)">
    <g
       id="g4318">
      <path
         style="fill:#000000;fill-opacity:1;fill-rule:evenodd;stroke:none;stroke-width:1px;stroke-linecap:butt;stroke-linejoin:miter;stroke-opacity:1"
         d="m 155.44229,493.12728 c -0.20327,-0.0513 0.45547,-5.42397 3.7491,-15.189 3.32545,-9.85938 9.26328,-23.7291 20.19232,-40.3218 9.84107,-14.94964 22.81386,-30.89167 40.44775,-48.09349 23.57808,-22.00384 52.8358,-43.72932 89.89188,-65.02009 -1.36357,4.94055 -3.15054,9.27711 -4.75115,13.72326 -2.51222,3.82216 -4.99768,7.62775 -6.65052,11.58649 -0.7422,1.78026 -1.33737,3.55613 -1.60236,5.30074 -0.2409,1.60378 -0.25873,3.19993 0.0832,4.6332 0,0 1e-5,3e-5 1e-5,3e-5 0.32457,1.50211 1.07313,2.98097 2.07906,4.30228 1e-5,0 2e-5,3e-5 2e-5,3e-5 0.54556,1.74527 1.60526,3.24385 2.87477,4.62998 6.56842,-6.20196 15.11258,-9.69618 23.91577,-10.67782 13.45435,-0.25828 26.91605,3.26079 40.08354,8.20113 -10.76645,5.6207 -21.77781,12.0448 -29.34665,21.68744 -5.14558,3.67457 -8.85231,8.82138 -11.4993,14.40485 6.91587,-2.87107 14.26948,-4.5909 21.63619,-4.76999 7.29053,0.65239 14.42787,2.49163 21.22429,5.18448 13.30745,6.5549 24.71992,15.62223 36.56872,24.33965 0,0 -8e-5,8e-5 -8e-5,8e-5 -2.35816,2.61926 -4.72827,4.69272 -6.9185,6.493 0,0 -7e-5,5e-5 -7e-5,5e-5 -2.66624,0.655 -5.29177,1.06255 -7.83906,1.37446 0,-1e-5 -7e-5,0 -7e-5,0 -5.83814,0.72383 -11.11529,1.00923 -16.65814,1.62808 -4.8042,0.59677 -9.33931,1.07447 -12.93408,2.77857 0,0 -4e-5,3e-5 -4e-5,3e-5 -1.26145,0.64042 -2.30652,1.20708 -2.73935,1.87798 0,0 -1e-5,2e-5 -1e-5,2e-5 -0.63605,-0.15013 -1.09762,0.0534 -1.35221,0.21964 14.9261,13.66372 31.80759,26.02571 50.75225,34.5786 13.72428,6.72472 28.52873,11.19983 43.94247,15.97832 5.06663,-0.92136 9.9148,-2.28326 13.52599,-5.08683 3.4432,-2.23035 6.23738,-5.79696 8.76459,-9.77432 3.28858,-5.28146 6.00679,-11.11783 9.09829,-17.1429 0,0 4e-5,-6e-5 4e-5,-6e-5 4.17978,-8.07875 8.7015,-16.11382 13.75863,-23.90268 3.24552,-24.29129 9.79781,-48.41497 19.49136,-71.55424 5.1823,-12.40879 11.35243,-24.59134 18.82148,-36.09373 2.99519,-3.56195 6.15313,-7.05186 9.48804,-10.42791 6.06744,-6.1423 12.67854,-11.86506 19.9153,-16.95381 -10.48398,29.49325 -17.62128,59.83007 -21.06372,90.32028 -4.49495,28.01428 -5.64242,56.19199 -4.47125,83.68591 1.3997,59.29135 13.38085,120.32503 22.83002,173.44217 -9.46823,-1.90108 -18.16195,-5.67065 -25.49173,-10.7947 -6.26794,-5.89145 -11.21666,-12.80504 -15.23846,-19.9087 -8.35918,-14.76526 -13.83308,-31.5012 -19.77343,-45.73598 -10.77986,-14.13119 -21.74894,-26.95586 -34.71376,-37.16499 -9.6842,-7.6985 -20.44792,-13.50563 -31.68886,-16.8775 -11.70989,-3.552 -24.24134,-4.81965 -36.19745,-5.72735 -17.64323,-1.4655 -30.03205,-1.9519 -46.65622,-3.60357 -13.08572,8.99201 -25.86278,16.66758 -39.06818,22.79851 -10.39604,4.77723 -20.72733,8.39018 -30.97647,10.77637 -8.78374,2.03748 -17.59663,3.15781 -25.69683,3.96219 -9.25455,0.85765 -16.94201,1.42458 -25.06577,2.65524 -22.78481,-11.08016 -32.63257,-14.28073 -48.48947,-24.14054 -7.11776,-4.45508 -12.36561,-8.86349 -16.38862,-13.4235 -9.35465,-10.6248 -9.50876,-18.30844 -9.86331,-18.17756 1.00774,-0.372 1.96637,7.00274 11.45265,16.70441 4.09552,4.19796 9.28249,8.16932 16.3756,12.28229 16.31245,9.52209 24.28254,11.52101 47.51259,22.47328 7.92155,-1.49793 15.28743,-2.29578 23.91659,-3.39589 7.98228,-0.95601 16.56847,-2.20194 24.95035,-4.30876 9.80972,-2.45672 19.70585,-6.10594 29.71015,-10.88051 13.36224,-6.30851 26.41659,-14.16925 40.03252,-23.41041 17.03326,1.23132 30.14698,1.42636 48.75285,2.46311 12.12011,0.75313 25.16859,1.97478 37.86176,5.63653 12.27889,3.58086 23.984,9.72961 34.46406,17.93158 13.99332,11.04861 25.75044,24.58642 36.97624,39.23726 6.41844,14.89634 12.06107,31.64066 20.15631,45.57853 3.7963,6.53415 8.24431,12.73166 13.707,17.74697 4.52868,5.90194 10.19443,10.69396 16.40805,13.89075 -11.33326,-51.47807 -25.72322,-111.12061 -29.51912,-169.60033 -1.27944,-28.04883 -0.15807,-56.88653 4.40517,-85.67551 6.11817,-29.46399 16.09669,-58.67349 29.55576,-86.93932 -5.01728,5.81287 -9.49538,12.29679 -13.51711,19.23746 -2.21056,3.81496 -4.27487,7.75346 -6.20782,11.77325 -7.08879,10.89419 -12.98534,22.54539 -17.99707,34.49757 -9.62375,23.02385 -16.22637,46.97464 -19.63034,71.03937 -5.10367,8.10694 -9.73116,16.52914 -14.07171,25.05683 0,0 -3e-5,6e-5 -3e-5,6e-5 -2.98531,5.81888 -5.85095,11.88599 -9.53253,17.8215 -2.87927,4.72319 -6.64151,9.27028 -11.64939,12.70862 -6.22135,3.79164 -13.10679,5.59342 -19.6536,6.42794 -16.11301,-4.83819 -32.07702,-9.59752 -47.3873,-16.80746 -20.54877,-10.40135 -38.64872,-24.52369 -54.45422,-39.8372 -0.23665,-3.30868 0.44119,-6.57824 1.98669,-9.41852 0,0 6e-5,-7e-5 6e-5,-7e-5 1.89055,-2.19457 4.07902,-3.62541 6.17475,-4.48276 0,0 8e-5,-3e-5 8e-5,-3e-5 5.38428,-2.30174 10.83055,-2.99831 15.70871,-3.4556 5.86115,-0.62269 11.12346,-0.87916 16.55038,-1.52961 0,0 5e-5,-10e-6 5e-5,-10e-6 2.38038,-0.28924 4.65187,-0.61839 6.78225,-1.14081 0,0 5e-5,3e-5 5e-5,3e-5 1.74513,0.82922 3.29065,1.67108 4.41016,2.23879 0,0 3e-5,2e-5 3e-5,2e-5 -12.12772,-6.19184 -23.01284,-12.55419 -35.149,-16.1293 -6.1249,-2.45256 -12.43597,-4.14344 -18.76193,-4.73161 -8.0245,-1.58107 -16.13833,-1.73919 -23.88887,-0.83897 1.15201,-8.4086 3.8788,-16.46613 8.48578,-23.1157 9.39381,-8.31409 21.53514,-12.69572 32.85615,-15.83311 -12.56899,-2.11586 -24.84307,-3.17882 -36.72187,-0.70993 -9.09749,0.94424 -17.77261,3.82525 -24.34732,8.9534 -3.26647,-1.58451 -6.40072,-3.58218 -9.09726,-6.10414 0,0 -3e-5,-5e-5 -3e-5,-5e-5 -1.58908,-2.09378 -2.75364,-4.53749 -3.33587,-7.18542 1e-5,-10e-6 -2e-5,-6e-5 -2e-5,-6e-5 -0.52012,-2.51224 -0.50055,-5.01352 -0.0877,-7.3572 0.43709,-2.49491 1.21776,-4.81362 2.15772,-6.94089 2.06868,-4.68595 4.80165,-8.8284 7.41095,-12.64554 3.38961,-3.00326 6.65008,-5.63477 9.27885,-8.49873 -34.82426,22.72915 -62.38438,45.0412 -85.10132,67.3664 -17.74048,16.66883 -30.83405,31.9966 -40.95772,46.45358 -11.23391,16.05158 -17.57304,29.35343 -21.45225,38.92112 -3.82241,9.4276 -5.09746,14.63923 -5.51888,14.5328 z"
         id="path4136"
         inkscape:connector-curvature="0" />
      <path
         style="opacity:1;fill:none;fill-opacity:1;fill-rule:evenodd;stroke:#000000;stroke-opacity:1"
         d="m 216.18985,467.22025 a 19.653624,15.186891 0 0 1 -19.65363,15.18689 19.653624,15.186891 0 0 1 -19.65362,-15.18689 19.653624,15.186891 0 0 1 19.65362,-15.1869 19.653624,15.186891 0 0 1 19.65363,15.1869 z"
         id="path4144"
         inkscape:connector-curvature="0" />
      <g
         transform="scale(0.77856062,1.2844215)"
         style="font-style:normal;font-weight:normal;font-size:76.07725525px;line-height:125%;font-family:sans-serif;letter-spacing:0px;word-spacing:0px;fill:#000000;fill-opacity:1;stroke:none;stroke-width:1px;stroke-linecap:butt;stroke-linejoin:miter;stroke-opacity:1"
         id="text4236">
        <path
           d="m 218.46498,433.55223 7.50371,0 0,23.43982 24.88856,-23.43982 9.65824,0 -27.526,25.85438 29.4948,29.60624 -9.88113,0 -26.63447,-26.70877 0,26.70877 -7.50371,0 0,-55.46062 z"
           id="path4147"
           inkscape:connector-curvature="0" />
        <path
           d="m 268.0935,447.4081 6.83507,0 0,41.60475 -6.83507,0 0,-41.60475 z m 0,-16.19614 6.83507,0 0,8.65528 -6.83507,0 0,-8.65528 z"
           id="path4149"
           inkscape:connector-curvature="0" />
        <path
           d="m 315.71608,448.63395 0,6.4636 q -2.89747,-1.48589 -6.01783,-2.22883 -3.12035,-0.74294 -6.46359,-0.74294 -5.08915,0 -7.6523,1.56018 -2.52601,1.56018 -2.52601,4.68053 0,2.37742 1.82021,3.75186 1.82021,1.33729 7.31798,2.56315 l 2.34027,0.52006 q 7.28083,1.56018 10.32689,4.4205 3.08321,2.82318 3.08321,7.91233 0,5.79495 -4.60624,9.17534 -4.56909,3.38038 -12.59287,3.38038 -3.34324,0 -6.98365,-0.66864 -3.60327,-0.6315 -7.61516,-1.93165 l 0,-7.05795 q 3.78901,1.96879 7.46657,2.97177 3.67756,0.96582 7.28083,0.96582 4.82912,0 7.42942,-1.63447 2.6003,-1.67162 2.6003,-4.68054 0,-2.78603 -1.8945,-4.27191 -1.85736,-1.48589 -8.20951,-2.86033 l -2.37742,-0.5572 q -6.35215,-1.3373 -9.17533,-4.08619 -2.82318,-2.78603 -2.82318,-7.61515 0,-5.86924 4.16048,-9.06389 4.16047,-3.19465 11.81277,-3.19465 3.78901,0 7.13225,0.5572 3.34323,0.55721 6.16641,1.67162 z"
           id="path4151"
           inkscape:connector-curvature="0" />
        <path
           d="m 363.4501,463.90141 0,25.11144 -6.83507,0 0,-24.88856 q 0,-5.90639 -2.30312,-8.84101 -2.30312,-2.93462 -6.90936,-2.93462 -5.53491,0 -8.72956,3.52898 -3.19465,3.52897 -3.19465,9.6211 l 0,23.51411 -6.87222,0 0,-57.80089 6.87222,0 0,22.65973 q 2.4517,-3.75185 5.7578,-5.60921 3.34323,-1.85735 7.68944,-1.85735 7.16939,0 10.84696,4.45765 3.67756,4.4205 3.67756,13.03863 z"
           id="path4153"
           inkscape:connector-curvature="0" />
        <path
           d="m 376.45159,472.59383 0,-25.18573 6.83506,0 0,24.9257 q 0,5.90639 2.30312,8.87816 2.30312,2.93462 6.90936,2.93462 5.53492,0 8.72957,-3.52898 3.2318,-3.52897 3.2318,-9.62109 l 0,-23.58841 6.83506,0 0,41.60475 -6.83506,0 0,-6.3893 q -2.48886,3.789 -5.79495,5.64636 -3.26894,1.8202 -7.61515,1.8202 -7.16939,0 -10.8841,-4.45765 -3.71471,-4.45765 -3.71471,-13.03863 z"
           id="path4155"
           inkscape:connector-curvature="0" />
        <path
           d="m 449.1113,433.55223 7.54086,0 0,33.69242 q 0,8.9153 3.2318,12.85289 3.23179,3.90045 10.47548,3.90045 7.20653,0 10.43833,-3.90045 3.2318,-3.93759 3.2318,-12.85289 l 0,-33.69242 7.54086,0 0,34.6211 q 0,10.84695 -5.38633,16.38187 -5.34918,5.53491 -15.82466,5.53491 -10.51263,0 -15.89896,-5.53491 -5.34918,-5.53492 -5.34918,-16.38187 l 0,-34.6211 z"
           id="path4157"
           inkscape:connector-curvature="0" />
        <path
           d="m 521.51099,452.20007 q -5.49777,0 -8.69242,4.30907 -3.19465,4.27191 -3.19465,11.73848 0,7.46657 3.1575,11.77563 3.19465,4.27192 8.72957,4.27192 5.46062,0 8.65527,-4.30907 3.19465,-4.30906 3.19465,-11.73848 0,-7.39227 -3.19465,-11.70134 -3.19465,-4.34621 -8.65527,-4.34621 z m 0,-5.79494 q 8.9153,0 14.00445,5.79494 5.08916,5.79495 5.08916,16.04755 0,10.21545 -5.08916,16.04755 -5.08915,5.79494 -14.00445,5.79494 -8.95245,0 -14.04161,-5.79494 -5.052,-5.8321 -5.052,-16.04755 0,-10.2526 5.052,-16.04755 5.08916,-5.79494 14.04161,-5.79494 z"
           id="path4159"
           inkscape:connector-curvature="0" />
        <path
           d="m 551.6373,431.21196 6.87221,0 0,34.13819 20.39376,-17.94205 8.72956,0 -22.06537,19.46508 22.99405,22.13967 -8.9153,0 -21.1367,-20.31946 0,20.31946 -6.87221,0 0,-57.80089 z"
           id="path4161"
           inkscape:connector-curvature="0" />
        <path
           d="m 609.32672,452.20007 q -5.49777,0 -8.69242,4.30907 -3.19465,4.27191 -3.19465,11.73848 0,7.46657 3.1575,11.77563 3.19465,4.27192 8.72957,4.27192 5.46063,0 8.65528,-4.30907 3.19465,-4.30906 3.19465,-11.73848 0,-7.39227 -3.19465,-11.70134 -3.19465,-4.34621 -8.65528,-4.34621 z m 0,-5.79494 q 8.91531,0 14.00446,5.79494 5.08915,5.79495 5.08915,16.04755 0,10.21545 -5.08915,16.04755 -5.08915,5.79494 -14.00446,5.79494 -8.95245,0 -14.0416,-5.79494 -5.05201,-5.8321 -5.05201,-16.04755 0,-10.2526 5.05201,-16.04755 5.08915,-5.79494 14.0416,-5.79494 z"
           id="path4163"
           inkscape:connector-curvature="0" />
      </g>
      <path
         inkscape:transform-center-y="1.785922"
         inkscape:transform-center-x="-26.781324"
         inkscape:connector-curvature="0"
         id="path4256"
         d="m 543.34712,631.86843 c -11.05273,-11.42757 -21.04028,-28.70816 -29.92836,-51.78249 -5.63203,-14.62135 -23.12111,-36.55792 -39.86961,-50.00851 -23.03464,-18.49895 -44.54329,-24.53231 -95.17773,-26.69823 l -29.58837,-1.26564 -11.65551,7.36112 c -16.09602,10.16557 -43.17119,22.6932 -56.02297,25.92174 -5.89609,1.48118 -19.72569,3.99533 -30.73246,5.58699 l -20.01229,2.89396 -25.67926,-12.31955 c -26.04557,-12.49528 -37.37413,-20.63259 -44.27981,-31.80621 -4.50551,-7.29005 -3.6181,-11.04469 8.2055,-34.7175 13.82219,-27.67432 39.52742,-58.36738 73.69289,-87.99221 18.27113,-15.84288 50.34799,-40.55236 52.68861,-40.58714 0.75698,-0.0113 -0.24803,3.16356 -2.23336,7.05513 -6.29894,12.34693 -4.36842,24.48764 4.64475,29.21011 3.98225,2.08652 5.45745,1.97732 11.12191,-0.82325 3.59188,-1.77587 10.86149,-4.04931 16.15469,-5.0521 11.52231,-2.18289 30.57659,-2.41056 30.57659,-0.36534 0,0.80185 -4.29473,3.23798 -9.54382,5.41361 -11.58972,4.80366 -18.00619,11.18012 -21.6539,21.51884 -4.36943,12.38427 -4.15606,12.70357 8.48867,12.70357 6.18098,0 15.91286,1.21761 21.62642,2.70581 13.66824,3.56012 37.04571,13.34477 35.98477,15.06143 -0.45956,0.74357 -7.03484,1.87598 -14.61172,2.51646 -7.5769,0.64048 -16.64891,2.56975 -20.16001,4.28728 -5.28631,2.58588 -6.47494,4.20373 -6.91377,9.41022 -0.47633,5.65171 0.44557,7.12963 9.11764,14.61655 23.47393,20.26592 44.51806,32.14455 74.1345,41.84617 18.38511,6.02251 18.92005,6.08928 27.89146,3.48123 12.48536,-3.6296 18.53042,-10.44687 33.30987,-37.56491 10.4426,-19.16059 12.98964,-25.5791 15.98685,-40.2867 4.10755,-20.15612 13.90803,-49.38823 21.82226,-65.08987 8.48636,-16.83673 23.13092,-42.41337 23.8647,-41.6796 0.36339,0.3634 -1.72597,6.52547 -4.64301,13.6935 -30.64974,75.31518 -30.59139,146.57332 0.23413,285.86147 2.9135,13.16498 4.9566,24.82315 4.54025,25.90705 -0.41637,1.08391 -5.5376,-2.97193 -11.3805,-9.01299 z M 208.77926,480.2446 c 10.05161,-5.19789 11.55474,-13.92498 3.87819,-22.51653 -13.35396,-14.94568 -41.73907,-3.38457 -35.72655,14.55123 3.21683,9.59606 20.38944,13.89094 31.84836,7.9653 z"
         style="opacity:0.75;fill:url(#linearGradient4308);fill-opacity:1;fill-rule:evenodd;stroke:#000000;stroke-width:1.78699994;stroke-miterlimit:4;stroke-dasharray:none;stroke-opacity:1" />
    </g>
  </g>
</svg>
