<?xml version="1.0" standalone="no"?>
<!DOCTYPE svg PUBLIC "-//W3C//DTD SVG 20010904//EN"
 "http://www.w3.org/TR/2001/REC-SVG-20010904/DTD/svg10.dtd">
<svg version="1.0" xmlns="http://www.w3.org/2000/svg"
 width="288.000000pt" height="288.000000pt" viewBox="0 0 288.000000 288.000000"
 preserveAspectRatio="xMidYMid meet">
<metadata>
Created by potrace 1.11, written by Peter Selinger 2001-2013
</metadata>
<g transform="translate(0.000000,288.000000) scale(0.100000,-0.100000)"
fill="#000000" stroke="none">
<path d="M1495 2269 c-22 -4 -58 -11 -79 -14 -74 -12 -271 -76 -406 -132 -316
-132 -684 -348 -924 -543 -33 -27 -86 -79 -86 -85 0 -8 18 2 235 130 294 172
461 261 670 355 497 223 826 274 930 146 27 -34 30 -45 30 -104 -1 -103 -11
-141 -88 -344 -15 -38 -23 -68 -19 -68 11 0 85 117 116 185 137 295 40 484
-248 483 -50 -1 -109 -5 -131 -9z"/>
<path d="M2710 2083 c-295 -41 -590 -157 -719 -284 -108 -107 -68 -231 90
-284 58 -20 107 -26 114 -15 3 5 -26 25 -63 45 -185 97 -165 172 78 293 109
55 280 116 582 208 48 14 85 30 82 35 -5 9 -105 10 -164 2z"/>
<path d="M1445 2010 c-26 -50 -25 -54 8 -50 18 1 18 0 2 -24 -10 -14 -23 -26
-31 -26 -7 0 -11 -6 -8 -13 4 -11 13 -12 44 -3 22 5 40 13 40 17 0 4 -10 5
-21 2 -18 -5 -20 -3 -11 13 6 10 23 32 38 48 21 22 24 30 13 37 -9 5 -17 2
-23 -9 -12 -23 -11 -22 -35 -27 -21 -4 -22 -4 -3 23 30 44 33 50 23 57 -6 3
-22 -17 -36 -45z"/>
<path d="M1595 2030 l-60 -6 55 -5 c53 -4 55 -5 55 -34 0 -16 -4 -33 -10 -37
-6 -5 -5 -11 5 -18 8 -5 18 -6 21 -2 12 12 15 102 4 104 -5 2 -37 1 -70 -2z"/>
<path d="M1500 1948 c0 -4 5 -19 10 -34 8 -21 13 -25 22 -16 9 9 7 17 -10 34
-12 12 -22 19 -22 16z"/>
<path d="M1554 1878 l1 -73 52 -3 c29 -2 61 2 73 8 17 9 18 14 8 30 -12 19
-13 19 -20 -1 -6 -17 -15 -20 -50 -17 l-43 3 0 58 c0 42 3 56 12 53 7 -3 14
-2 17 2 3 4 -8 9 -24 10 l-28 2 2 -72z"/>
<path d="M1129 1914 c32 -14 33 -16 15 -30 -21 -17 -18 -16 39 6 52 20 41 34
-29 36 l-59 2 34 -14z"/>
<path d="M1500 1885 c0 -2 5 -16 10 -31 7 -18 14 -24 21 -17 12 12 2 40 -17
47 -8 3 -14 4 -14 1z"/>
<path d="M1468 1850 c2 -17 8 -30 13 -30 14 0 11 36 -4 49 -11 8 -13 5 -9 -19z"/>
<path d="M1421 1844 c-15 -33 -14 -45 3 -38 15 6 28 52 16 59 -4 2 -12 -7 -19
-21z"/>
<path d="M1174 1849 c-10 -4 -32 -13 -49 -20 -16 -7 -37 -13 -45 -13 -17 -1
-21 -27 -4 -33 6 -2 28 8 48 22 57 38 91 43 110 14 8 -13 13 -33 11 -44 -2
-11 -4 -28 -4 -37 -1 -26 -57 -75 -98 -86 l-38 -10 34 -1 c68 -2 131 63 131
136 0 55 -48 91 -96 72z"/>
<path d="M630 1794 c-81 -34 -84 -162 -4 -204 55 -30 129 -7 158 48 18 34 12
99 -11 124 -41 45 -87 55 -143 32z"/>
<path d="M1479 1687 c-1 -99 -5 -116 -41 -161 -24 -29 -26 -36 -10 -27 31 16
61 59 66 95 14 85 13 155 0 160 -11 4 -14 -10 -15 -67z"/>
<path d="M1650 1747 c-5 -230 -4 -257 7 -257 17 0 23 258 6 265 -7 2 -13 -1
-13 -8z"/>
<path d="M1560 1630 c0 -91 3 -118 13 -115 17 7 18 235 0 235 -10 0 -13 -30
-13 -120z"/>
<path d="M1434 1644 c-12 -37 -1 -57 14 -27 9 16 8 50 0 58 -2 2 -8 -12 -14
-31z"/>
<path d="M1515 1655 c16 -51 16 -50 25 -35 5 8 5 21 -1 32 -12 22 -30 24 -24
3z"/>
<path d="M1604 1646 c7 -36 14 -43 22 -22 4 11 0 24 -10 34 -16 16 -17 15 -12
-12z"/>
<path d="M1107 1574 c-4 -4 -3 -12 1 -18 11 -19 13 -54 2 -61 -5 -3 -28 -7
-50 -7 -22 0 -37 -4 -34 -10 3 -5 24 -8 47 -6 38 2 40 1 42 -26 1 -22 -9 -37
-47 -69 -26 -22 -45 -44 -42 -49 4 -6 24 7 45 28 l39 38 0 -32 c0 -25 -3 -30
-17 -25 -14 6 -14 3 3 -20 10 -14 22 -27 26 -27 4 0 8 28 10 63 l3 62 43 14
c37 11 45 11 67 -3 30 -20 32 -45 5 -79 -17 -21 -26 -25 -58 -21 -23 3 -33 1
-27 -5 10 -9 36 -14 66 -12 51 4 79 90 40 126 -20 18 -84 18 -124 0 -16 -7
-18 -4 -15 21 2 18 10 30 23 34 33 8 60 28 52 36 -4 4 -21 0 -36 -9 -38 -22
-38 -22 -33 11 4 27 -18 59 -31 46z"/>
<path d="M1247 1533 c-4 -3 1 -12 11 -19 14 -11 15 -15 3 -23 -9 -6 -6 -8 13
-8 15 0 29 3 31 7 7 11 -50 52 -58 43z"/>
<path d="M0 1387 c0 -35 312 -263 544 -396 442 -255 840 -395 1101 -387 106 3
152 16 212 62 100 76 103 243 7 439 -38 76 -95 165 -106 165 -4 0 4 -30 18
-67 104 -271 118 -381 57 -453 -41 -49 -85 -63 -198 -63 -138 0 -318 45 -560
140 -95 38 -341 150 -409 188 -23 12 -81 44 -131 70 -74 39 -263 148 -393 226
-69 41 -142 80 -142 76z"/>
<path d="M2080 1318 c-260 -98 -177 -301 181 -446 100 -41 283 -94 386 -112
118 -20 262 -19 227 3 -5 3 -81 26 -169 52 -158 46 -312 98 -390 130 -154 63
-286 150 -305 199 -17 47 36 105 143 157 26 13 47 27 47 31 0 15 -64 7 -120
-14z"/>
<path d="M1150 1220 c0 -28 -2 -29 -52 -33 l-53 -3 53 -2 c45 -2 52 -5 52 -22
0 -18 -7 -20 -70 -20 -38 0 -70 -3 -70 -7 0 -5 70 -7 154 -5 131 2 154 5 149
17 -6 17 -23 20 -23 5 0 -5 -25 -10 -55 -10 -48 0 -55 2 -55 20 0 18 7 20 56
20 50 0 55 2 44 15 -9 11 -16 13 -24 5 -5 -5 -25 -10 -44 -10 -31 0 -34 2 -30
24 4 18 0 26 -14 29 -14 4 -18 -1 -18 -23z"/>
<path d="M1103 1095 c13 -26 22 -31 32 -16 6 10 -21 41 -35 41 -4 0 -3 -11 3
-25z"/>
<path d="M1190 1090 c-12 -30 -13 -30 -94 -32 l-81 -2 65 -5 c65 -6 88 -23 58
-43 -9 -6 -10 -10 -2 -15 6 -5 10 -19 9 -33 -1 -14 0 -31 3 -38 8 -22 30 7 27
36 -2 15 2 30 9 35 8 5 8 9 0 15 -6 4 -11 15 -11 25 0 14 10 17 70 17 61 0 68
2 57 15 -9 11 -16 13 -24 5 -5 -5 -28 -10 -50 -10 l-41 1 27 23 c26 23 27 36
3 36 -7 0 -18 -13 -25 -30z"/>
<path d="M1250 1015 c-7 -9 -19 -14 -26 -11 -7 3 -15 2 -18 -2 -2 -4 15 -8 40
-8 38 -1 42 1 32 15 -7 9 -13 17 -14 19 -1 1 -7 -5 -14 -13z"/>
<path d="M1046 998 c3 -4 9 -8 15 -8 5 0 9 4 9 8 0 5 -7 9 -15 9 -8 0 -12 -4
-9 -9z"/>
<path d="M1086 1002 c-3 -4 4 -9 15 -9 23 -2 25 3 4 10 -8 4 -16 3 -19 -1z"/>
</g>
</svg>
