<?xml version="1.0" encoding="utf-8"?>
<svg viewBox="0 0 500 500" xmlns="http://www.w3.org/2000/svg">
  <defs>
    <pattern id="pattern-0" x="0" y="0" width="20" height="20" patternUnits="userSpaceOnUse" viewBox="0 0 100 100">
      <path d="M 0 0 L 50 0 L 50 100 L 0 100 Z" style="fill: black;"/>
    </pattern>
  </defs>
  <g transform="matrix(1, 0, 0, 1, 63.686417, -28.076807)">
    <path d="M 124.386 179.553 C 138.509 182.737 135.269 182.521 146.595 184.602 C 165.228 188.024 191.756 194.224 209.401 185.971 C 223.234 179.501 234.636 154.643 213.486 153.101 C 210.744 152.901 207.181 153.686 205.048 154.887 C 182.577 167.538 182.606 179.388 173.987 190.765 C 149.462 223.138 109.906 304.693 78.115 285.267 C 69.42 279.954 68.334 275.309 67.642 272.424 C 66.455 267.478 65.264 264.985 69.82 254.106 C 75.676 240.124 89.712 238.441 104.138 235.962 C 117.18 233.72 141.647 233.413 154.813 233.907 C 192.63 235.325 234.526 243.087 262.326 270.886" style="fill: none; stroke-linecap: round; stroke-width: 7; stroke: rgb(41, 98, 255);"/>
    <path d="M 173.987 233.222 C 173.987 233.222 179.326 231.922 179.466 231.853 C 184.935 229.118 189.002 224.371 193.162 220.211 C 193.162 225.563 187.007 229.132 189.738 234.592 C 192.575 240.267 205.447 227.782 205.488 227.744 C 218.948 215.455 230.053 201.189 240.437 186.191 C 242.599 183.068 244.409 180.589 246.6 177.485 C 246.894 177.068 250.22 172.601 250.22 171.418 C 250.22 168.174 245.622 177.784 243.837 180.493 C 238.923 187.948 234.172 195.509 229.456 203.091 C 222.53 214.228 215.459 225.282 208.912 236.646 C 181.603 284.051 160.178 333.81 144.541 385.933" style="fill: none; stroke-linecap: round; stroke-width: 7; stroke: rgb(68, 138, 255);"/>
  </g>
  <path d="M -241.002 5.869 Z" style="stroke: black; fill: none;"/>
</svg>